<?xml version="1.0" encoding="utf-8"?>
<!-- Generator: Adobe Illustrator 23.0.0, SVG Export Plug-In . SVG Version: 6.00 Build 0)  -->
<svg version="1.1" id="weightDriver" xmlns="http://www.w3.org/2000/svg" xmlns:xlink="http://www.w3.org/1999/xlink" x="0px"
	 y="0px" viewBox="0 0 512 512" style="enable-background:new 0 0 512 512;" xml:space="preserve">
<style type="text/css">
	.st0{fill-rule:evenodd;clip-rule:evenodd;fill:#6A6A6A;stroke:#3F3F3F;stroke-width:24;stroke-miterlimit:10;}
	.st1{fill:none;stroke:#BFBFBF;stroke-width:24;stroke-miterlimit:10;}
	.st2{fill-rule:evenodd;clip-rule:evenodd;fill:#3F3F3F;stroke:#BFBFBF;stroke-width:24;stroke-miterlimit:10;}
	.st3{fill-rule:evenodd;clip-rule:evenodd;fill:#BFBFBF;}
</style>
<path id="large_sphere" class="st0" d="M416.8,95c88.9,88.9,88.9,233,0.1,321.9S184,505.8,95.2,417C6.3,328.1,6.3,184,95.1,95.1
	S328,6.2,416.8,95z"/>
<path id="light_inner_ring" class="st1" d="M399.3,112.6c79.2,79.2,79.2,207.5,0.1,286.8s-207.4,79.3-286.6,0.1
	s-79.2-207.5-0.1-286.8C191.8,33.5,320.1,33.4,399.3,112.6z"/>
<path id="small_sphere" class="st2" d="M368,142.9c34.8,34.8,34.8,91.2,0,126.1s-91.2,34.8-126,0s-34.8-91.2,0-126.1
	S333.2,108.2,368,142.9z"/>
<path id="circle" class="st3" d="M324.5,186.5c10.7,10.7,10.7,28.1,0,38.9c-10.7,10.7-28.1,10.7-38.9,0c-10.7-10.7-10.7-28.1,0-38.9
	C296.2,175.8,313.7,175.8,324.5,186.5z"/>
</svg>
